<?xml version="1.0" standalone="no"?>
<!DOCTYPE svg PUBLIC "-//W3C//DTD SVG 20010904//EN"
 "http://www.w3.org/TR/2001/REC-SVG-20010904/DTD/svg10.dtd">
<svg version="1.0" xmlns="http://www.w3.org/2000/svg"
 width="864.000000pt" height="860.000000pt" viewBox="0 0 864.000000 860.000000"
 preserveAspectRatio="xMidYMid meet">

<g transform="translate(0.000000,860.000000) scale(0.100000,-0.100000)"
fill="#000000" stroke="none">
<path d="M5554 8499 c-4 -6 -11 -93 -16 -193 -6 -100 -12 -187 -14 -195 -8
-23 -26 12 -77 144 -25 66 -49 128 -52 138 -5 11 -18 17 -36 17 -38 0 -38 -17
0 -109 17 -39 25 -71 20 -71 -5 0 -32 11 -59 25 -28 14 -80 32 -116 41 -61 14
-69 14 -83 -1 -25 -25 -2 -47 66 -61 114 -23 240 -106 268 -176 9 -22 15 -42
13 -43 -2 -2 -84 15 -182 36 -134 29 -183 36 -193 28 -16 -14 -17 -33 0 -47
15 -12 388 -94 437 -96 34 -1 36 -3 87 -106 117 -237 189 -478 223 -755 15
-115 15 -404 0 -520 -56 -455 -244 -893 -529 -1235 -39 -47 -121 -133 -183
-192 -97 -92 -110 -109 -99 -122 8 -9 21 -16 31 -16 24 0 205 174 301 289 233
278 404 617 490 965 49 203 63 327 63 571 0 230 -12 352 -56 540 -33 144 -115
370 -182 506 l-63 125 119 170 c120 171 135 206 91 212 -18 3 -40 -23 -128
-149 l-106 -153 8 150 c4 82 8 181 8 219 0 64 -2 70 -22 73 -11 2 -24 -2 -29
-9z"/>
<path d="M2260 7601 c-13 -25 0 -89 39 -203 28 -79 40 -158 25 -158 -3 0 -52
44 -109 97 -57 53 -110 100 -119 105 -14 8 -46 -14 -46 -31 0 -5 56 -61 125
-126 69 -64 125 -121 125 -125 0 -16 -70 -40 -116 -40 -26 0 -74 7 -105 16
-66 18 -89 14 -89 -16 0 -26 41 -44 133 -60 l67 -12 -41 -47 c-76 -85 -150
-262 -125 -296 24 -33 48 -14 66 50 32 117 103 218 197 281 32 21 63 44 68 50
19 22 91 0 151 -46 212 -160 398 -398 544 -695 128 -259 204 -484 310 -908 70
-279 73 -287 99 -287 20 0 20 -1 2 -42 -44 -106 -56 -170 -55 -303 0 -148 13
-209 75 -344 64 -137 165 -259 281 -339 70 -48 185 -101 250 -114 32 -7 58
-17 58 -24 0 -6 43 -44 95 -83 332 -253 549 -639 630 -1121 26 -150 31 -438
11 -609 -45 -387 -200 -901 -367 -1221 -95 -181 -197 -301 -315 -369 -33 -19
-71 -42 -85 -52 l-26 -17 -356 536 c-196 295 -407 615 -469 709 -95 144 -118
174 -146 184 -27 9 -37 8 -50 -4 -9 -8 -29 -21 -43 -28 -40 -21 -192 -192
-234 -264 -20 -34 -54 -77 -76 -94 -42 -34 -48 -51 -24 -71 11 -10 31 -7 97
15 105 34 130 47 215 116 70 57 113 107 134 153 7 14 15 26 19 26 4 0 130
-186 281 -412 617 -933 600 -908 625 -908 12 0 26 5 29 10 4 7 12 7 24 0 44
-23 226 104 320 223 114 142 231 387 335 698 133 401 188 702 189 1034 0 443
-103 807 -320 1135 -96 145 -198 255 -352 380 l-43 35 79 3 c252 9 496 138
639 339 174 242 195 600 53 874 -54 103 -173 231 -273 293 -180 112 -394 157
-596 126 -87 -14 -162 -38 -180 -59 -8 -9 -49 -36 -89 -60 -88 -52 -210 -170
-269 -259 -37 -56 -42 -61 -47 -40 -176 780 -356 1232 -630 1583 -75 96 -234
252 -327 320 -38 28 -68 53 -68 57 0 3 68 61 151 128 119 97 150 126 147 143
-6 45 -38 29 -196 -98 l-157 -127 -6 59 c-3 32 -22 109 -42 170 -21 62 -37
123 -37 136 0 44 -41 63 -60 28z m2111 -2056 c153 -32 268 -95 384 -210 90
-89 145 -181 187 -315 19 -64 23 -96 23 -215 0 -151 -17 -229 -72 -340 -119
-237 -365 -395 -643 -412 -447 -27 -829 379 -779 828 28 245 191 479 413 591
33 17 65 37 71 44 28 39 284 57 416 29z"/>
<path d="M3839 5250 c-36 -19 -89 -73 -89 -90 0 -9 28 -40 35 -40 2 0 22 18
43 39 68 68 156 62 201 -15 21 -35 57 -46 67 -20 12 32 -54 115 -109 135 -43
16 -108 12 -148 -9z"/>
<path d="M4456 5225 c-50 -17 -98 -63 -94 -90 5 -31 35 -30 73 3 47 42 84 48
139 24 46 -21 68 -50 81 -110 8 -39 30 -51 52 -29 22 22 8 89 -31 140 -51 67
-138 92 -220 62z"/>
<path d="M3614 5025 c-13 -32 4 -181 30 -260 37 -115 89 -198 186 -295 134
-135 286 -200 464 -200 163 0 291 53 407 169 114 114 165 240 157 387 -4 80
-17 106 -46 88 -14 -9 -17 -28 -18 -105 0 -63 -6 -110 -18 -144 -57 -156 -189
-271 -362 -315 -92 -24 -135 -25 -229 -5 -279 58 -483 301 -512 610 -7 73 -10
80 -31 83 -13 2 -25 -3 -28 -13z"/>
<path d="M5275 2393 c-157 -57 -278 -196 -279 -323 -1 -40 1 -45 22 -45 20 0
27 10 45 66 55 163 163 243 327 243 108 1 168 -24 238 -98 102 -107 142 -243
149 -498 10 -327 -42 -578 -178 -866 l-48 -103 -30 16 c-75 38 -184 -6 -302
-124 -90 -91 -158 -213 -189 -342 -28 -117 -27 -156 5 -171 30 -13 64 8 194
122 417 367 660 974 613 1528 -14 166 -39 271 -89 372 -45 92 -108 157 -197
200 -86 42 -200 52 -281 23z m-83 -1885 c-7 -7 -12 -8 -12 -2 0 14 12 26 19
19 2 -3 -1 -11 -7 -17z"/>
</g>
</svg>
